<mxfile host="65bd71144e">
    <diagram id="CnBQvaOkB8mmis-8r3fq" name="Page-1">
        <mxGraphModel dx="1576" dy="487" grid="1" gridSize="10" guides="1" tooltips="1" connect="1" arrows="1" fold="1" page="1" pageScale="1" pageWidth="1100" pageHeight="850" math="0" shadow="0">
            <root>
                <mxCell id="0"/>
                <mxCell id="1" parent="0"/>
                <mxCell id="2" value="akun" style="rounded=1;whiteSpace=wrap;html=1;" parent="1" vertex="1">
                    <mxGeometry x="150" y="395" width="120" height="60" as="geometry"/>
                </mxCell>
                <mxCell id="4" value="role" style="ellipse;whiteSpace=wrap;html=1;" parent="1" vertex="1">
                    <mxGeometry x="120" y="520" width="120" height="80" as="geometry"/>
                </mxCell>
                <mxCell id="5" value="" style="endArrow=none;html=1;entryX=0.5;entryY=1;entryDx=0;entryDy=0;exitX=0.5;exitY=0;exitDx=0;exitDy=0;" parent="1" source="4" target="2" edge="1">
                    <mxGeometry width="50" height="50" relative="1" as="geometry">
                        <mxPoint x="190" y="530" as="sourcePoint"/>
                        <mxPoint x="240" y="480" as="targetPoint"/>
                    </mxGeometry>
                </mxCell>
                <mxCell id="6" value="&lt;u&gt;id_akun&lt;/u&gt;" style="ellipse;whiteSpace=wrap;html=1;" parent="1" vertex="1">
                    <mxGeometry x="-20" y="410" width="120" height="80" as="geometry"/>
                </mxCell>
                <mxCell id="7" value="" style="endArrow=none;html=1;exitX=1;exitY=0.5;exitDx=0;exitDy=0;entryX=0.5;entryY=1;entryDx=0;entryDy=0;" parent="1" source="6" target="2" edge="1">
                    <mxGeometry width="50" height="50" relative="1" as="geometry">
                        <mxPoint x="190" y="530" as="sourcePoint"/>
                        <mxPoint x="210" y="460" as="targetPoint"/>
                    </mxGeometry>
                </mxCell>
                <mxCell id="10" value="aum" style="rounded=1;whiteSpace=wrap;html=1;" parent="1" vertex="1">
                    <mxGeometry x="650" y="400" width="120" height="60" as="geometry"/>
                </mxCell>
                <mxCell id="13" value="&lt;u&gt;id_aum&lt;/u&gt;" style="ellipse;whiteSpace=wrap;html=1;" parent="1" vertex="1">
                    <mxGeometry x="480" y="415" width="120" height="80" as="geometry"/>
                </mxCell>
                <mxCell id="14" value="" style="endArrow=none;html=1;exitX=1;exitY=0.5;exitDx=0;exitDy=0;entryX=0.5;entryY=1;entryDx=0;entryDy=0;" parent="1" source="13" target="10" edge="1">
                    <mxGeometry width="50" height="50" relative="1" as="geometry">
                        <mxPoint x="690" y="535" as="sourcePoint"/>
                        <mxPoint x="710" y="465" as="targetPoint"/>
                    </mxGeometry>
                </mxCell>
                <mxCell id="16" value="Fathir Adzan Satia" style="text;html=1;align=center;verticalAlign=middle;whiteSpace=wrap;rounded=0;fontSize=25;" parent="1" vertex="1">
                    <mxGeometry x="250" y="1150" width="60" height="30" as="geometry"/>
                </mxCell>
                <mxCell id="17" value="Kategori" style="text;html=1;align=center;verticalAlign=middle;whiteSpace=wrap;rounded=0;fontSize=25;" parent="1" vertex="1">
                    <mxGeometry x="470" y="970" width="60" height="30" as="geometry"/>
                </mxCell>
                <mxCell id="19" value="Jumlah Masalah" style="text;html=1;align=center;verticalAlign=middle;whiteSpace=wrap;rounded=0;fontSize=25;" parent="1" vertex="1">
                    <mxGeometry x="600" y="970" width="60" height="30" as="geometry"/>
                </mxCell>
                <mxCell id="20" value="001" style="text;html=1;align=center;verticalAlign=middle;whiteSpace=wrap;rounded=0;fontSize=25;" parent="1" vertex="1">
                    <mxGeometry x="250" y="1030" width="60" height="30" as="geometry"/>
                </mxCell>
                <mxCell id="22" value="X PPLG 1" style="text;html=1;align=center;verticalAlign=middle;whiteSpace=wrap;rounded=0;fontSize=25;" parent="1" vertex="1">
                    <mxGeometry x="235" y="1270" width="90" height="30" as="geometry"/>
                </mxCell>
                <mxCell id="23" value="JDK" style="text;html=1;align=center;verticalAlign=middle;whiteSpace=wrap;rounded=0;fontSize=25;" parent="1" vertex="1">
                    <mxGeometry x="455" y="1030" width="90" height="30" as="geometry"/>
                </mxCell>
                <mxCell id="24" value="001,003" style="text;html=1;align=center;verticalAlign=middle;whiteSpace=wrap;rounded=0;fontSize=25;" parent="1" vertex="1">
                    <mxGeometry x="715" y="1030" width="90" height="30" as="geometry"/>
                </mxCell>
                <mxCell id="26" value="Jawaban" style="text;html=1;align=center;verticalAlign=middle;whiteSpace=wrap;rounded=0;fontSize=25;" parent="1" vertex="1">
                    <mxGeometry x="730" y="970" width="60" height="30" as="geometry"/>
                </mxCell>
                <mxCell id="27" value="25" style="text;html=1;align=center;verticalAlign=middle;whiteSpace=wrap;rounded=0;fontSize=25;" parent="1" vertex="1">
                    <mxGeometry x="585" y="1030" width="90" height="30" as="geometry"/>
                </mxCell>
                <mxCell id="28" value="" style="endArrow=none;html=1;" parent="1" edge="1">
                    <mxGeometry width="50" height="50" relative="1" as="geometry">
                        <mxPoint x="440" y="1340" as="sourcePoint"/>
                        <mxPoint x="440" y="950" as="targetPoint"/>
                    </mxGeometry>
                </mxCell>
                <mxCell id="30" value="" style="endArrow=none;html=1;" parent="1" edge="1">
                    <mxGeometry width="50" height="50" relative="1" as="geometry">
                        <mxPoint x="570" y="1340" as="sourcePoint"/>
                        <mxPoint x="570" y="950" as="targetPoint"/>
                    </mxGeometry>
                </mxCell>
                <mxCell id="31" value="" style="endArrow=none;html=1;" parent="1" edge="1">
                    <mxGeometry width="50" height="50" relative="1" as="geometry">
                        <mxPoint x="700" y="1340" as="sourcePoint"/>
                        <mxPoint x="700" y="950" as="targetPoint"/>
                    </mxGeometry>
                </mxCell>
                <mxCell id="32" value="" style="endArrow=none;html=1;" parent="1" edge="1">
                    <mxGeometry width="50" height="50" relative="1" as="geometry">
                        <mxPoint x="820" y="1340" as="sourcePoint"/>
                        <mxPoint x="820" y="950" as="targetPoint"/>
                    </mxGeometry>
                </mxCell>
                <mxCell id="36" value="" style="endArrow=none;html=1;" parent="1" edge="1">
                    <mxGeometry width="50" height="50" relative="1" as="geometry">
                        <mxPoint x="440" y="1020" as="sourcePoint"/>
                        <mxPoint x="820" y="1020" as="targetPoint"/>
                    </mxGeometry>
                </mxCell>
                <mxCell id="39" value="" style="endArrow=none;html=1;" parent="1" edge="1">
                    <mxGeometry width="50" height="50" relative="1" as="geometry">
                        <mxPoint x="440" y="950" as="sourcePoint"/>
                        <mxPoint x="820" y="950" as="targetPoint"/>
                    </mxGeometry>
                </mxCell>
                <mxCell id="64" value="" style="endArrow=none;html=1;" parent="1" edge="1">
                    <mxGeometry width="50" height="50" relative="1" as="geometry">
                        <mxPoint x="440" y="1100" as="sourcePoint"/>
                        <mxPoint x="570" y="1100" as="targetPoint"/>
                    </mxGeometry>
                </mxCell>
                <mxCell id="65" value="" style="endArrow=none;html=1;" parent="1" edge="1">
                    <mxGeometry width="50" height="50" relative="1" as="geometry">
                        <mxPoint x="570" y="1100" as="sourcePoint"/>
                        <mxPoint x="700" y="1100" as="targetPoint"/>
                    </mxGeometry>
                </mxCell>
                <mxCell id="66" value="" style="endArrow=none;html=1;" parent="1" edge="1">
                    <mxGeometry width="50" height="50" relative="1" as="geometry">
                        <mxPoint x="695" y="1100" as="sourcePoint"/>
                        <mxPoint x="825" y="1100" as="targetPoint"/>
                    </mxGeometry>
                </mxCell>
                <mxCell id="67" value="KHK" style="text;html=1;align=center;verticalAlign=middle;whiteSpace=wrap;rounded=0;fontSize=25;" parent="1" vertex="1">
                    <mxGeometry x="452.5" y="1110" width="90" height="30" as="geometry"/>
                </mxCell>
                <mxCell id="68" value="011,013" style="text;html=1;align=center;verticalAlign=middle;whiteSpace=wrap;rounded=0;fontSize=25;" parent="1" vertex="1">
                    <mxGeometry x="712.5" y="1110" width="90" height="30" as="geometry"/>
                </mxCell>
                <mxCell id="69" value="25" style="text;html=1;align=center;verticalAlign=middle;whiteSpace=wrap;rounded=0;fontSize=25;" parent="1" vertex="1">
                    <mxGeometry x="582.5" y="1110" width="90" height="30" as="geometry"/>
                </mxCell>
                <mxCell id="70" value="" style="endArrow=none;html=1;" parent="1" edge="1">
                    <mxGeometry width="50" height="50" relative="1" as="geometry">
                        <mxPoint x="437.5" y="1100" as="sourcePoint"/>
                        <mxPoint x="817.5" y="1100" as="targetPoint"/>
                    </mxGeometry>
                </mxCell>
                <mxCell id="71" value="" style="endArrow=none;html=1;" parent="1" edge="1">
                    <mxGeometry width="50" height="50" relative="1" as="geometry">
                        <mxPoint x="437.5" y="1180" as="sourcePoint"/>
                        <mxPoint x="567.5" y="1180" as="targetPoint"/>
                    </mxGeometry>
                </mxCell>
                <mxCell id="72" value="" style="endArrow=none;html=1;" parent="1" edge="1">
                    <mxGeometry width="50" height="50" relative="1" as="geometry">
                        <mxPoint x="567.5" y="1180" as="sourcePoint"/>
                        <mxPoint x="697.5" y="1180" as="targetPoint"/>
                    </mxGeometry>
                </mxCell>
                <mxCell id="73" value="" style="endArrow=none;html=1;" parent="1" edge="1">
                    <mxGeometry width="50" height="50" relative="1" as="geometry">
                        <mxPoint x="692.5" y="1180" as="sourcePoint"/>
                        <mxPoint x="822.5" y="1180" as="targetPoint"/>
                    </mxGeometry>
                </mxCell>
                <mxCell id="74" value="HSO" style="text;html=1;align=center;verticalAlign=middle;whiteSpace=wrap;rounded=0;fontSize=25;" parent="1" vertex="1">
                    <mxGeometry x="450" y="1190" width="90" height="30" as="geometry"/>
                </mxCell>
                <mxCell id="75" value="025" style="text;html=1;align=center;verticalAlign=middle;whiteSpace=wrap;rounded=0;fontSize=25;" parent="1" vertex="1">
                    <mxGeometry x="710" y="1190" width="90" height="30" as="geometry"/>
                </mxCell>
                <mxCell id="76" value="25" style="text;html=1;align=center;verticalAlign=middle;whiteSpace=wrap;rounded=0;fontSize=25;" parent="1" vertex="1">
                    <mxGeometry x="580" y="1190" width="90" height="30" as="geometry"/>
                </mxCell>
                <mxCell id="77" value="" style="endArrow=none;html=1;" parent="1" edge="1">
                    <mxGeometry width="50" height="50" relative="1" as="geometry">
                        <mxPoint x="435" y="1180" as="sourcePoint"/>
                        <mxPoint x="815" y="1180" as="targetPoint"/>
                    </mxGeometry>
                </mxCell>
                <mxCell id="78" value="" style="endArrow=none;html=1;" parent="1" edge="1">
                    <mxGeometry width="50" height="50" relative="1" as="geometry">
                        <mxPoint x="435" y="1260" as="sourcePoint"/>
                        <mxPoint x="565" y="1260" as="targetPoint"/>
                    </mxGeometry>
                </mxCell>
                <mxCell id="79" value="" style="endArrow=none;html=1;" parent="1" edge="1">
                    <mxGeometry width="50" height="50" relative="1" as="geometry">
                        <mxPoint x="565" y="1260" as="sourcePoint"/>
                        <mxPoint x="695" y="1260" as="targetPoint"/>
                    </mxGeometry>
                </mxCell>
                <mxCell id="80" value="" style="endArrow=none;html=1;" parent="1" edge="1">
                    <mxGeometry width="50" height="50" relative="1" as="geometry">
                        <mxPoint x="690" y="1260" as="sourcePoint"/>
                        <mxPoint x="820" y="1260" as="targetPoint"/>
                    </mxGeometry>
                </mxCell>
                <mxCell id="81" value="KDP" style="text;html=1;align=center;verticalAlign=middle;whiteSpace=wrap;rounded=0;fontSize=25;" parent="1" vertex="1">
                    <mxGeometry x="452.5" y="1270" width="90" height="30" as="geometry"/>
                </mxCell>
                <mxCell id="82" value="040" style="text;html=1;align=center;verticalAlign=middle;whiteSpace=wrap;rounded=0;fontSize=25;" parent="1" vertex="1">
                    <mxGeometry x="712.5" y="1270" width="90" height="30" as="geometry"/>
                </mxCell>
                <mxCell id="83" value="25" style="text;html=1;align=center;verticalAlign=middle;whiteSpace=wrap;rounded=0;fontSize=25;" parent="1" vertex="1">
                    <mxGeometry x="582.5" y="1270" width="90" height="30" as="geometry"/>
                </mxCell>
                <mxCell id="84" value="" style="endArrow=none;html=1;" parent="1" edge="1">
                    <mxGeometry width="50" height="50" relative="1" as="geometry">
                        <mxPoint x="437.5" y="1260" as="sourcePoint"/>
                        <mxPoint x="817.5" y="1260" as="targetPoint"/>
                    </mxGeometry>
                </mxCell>
                <mxCell id="85" value="" style="endArrow=none;html=1;" parent="1" edge="1">
                    <mxGeometry width="50" height="50" relative="1" as="geometry">
                        <mxPoint x="437.5" y="1340" as="sourcePoint"/>
                        <mxPoint x="820" y="1340" as="targetPoint"/>
                    </mxGeometry>
                </mxCell>
                <mxCell id="100" value="" style="endArrow=none;html=1;" parent="1" edge="1">
                    <mxGeometry width="50" height="50" relative="1" as="geometry">
                        <mxPoint x="80" y="1340" as="sourcePoint"/>
                        <mxPoint x="462.5" y="1340" as="targetPoint"/>
                    </mxGeometry>
                </mxCell>
                <mxCell id="101" value="" style="endArrow=none;html=1;" parent="1" edge="1">
                    <mxGeometry width="50" height="50" relative="1" as="geometry">
                        <mxPoint x="80" y="950" as="sourcePoint"/>
                        <mxPoint x="80" y="1340" as="targetPoint"/>
                    </mxGeometry>
                </mxCell>
                <mxCell id="102" value="" style="endArrow=none;html=1;" parent="1" edge="1">
                    <mxGeometry width="50" height="50" relative="1" as="geometry">
                        <mxPoint x="80" y="950" as="sourcePoint"/>
                        <mxPoint x="442.5" y="950" as="targetPoint"/>
                    </mxGeometry>
                </mxCell>
                <mxCell id="103" value="Siswa" style="rounded=0;whiteSpace=wrap;html=1;" vertex="1" parent="1">
                    <mxGeometry x="2850" y="320" width="120" height="60" as="geometry"/>
                </mxCell>
                <mxCell id="104" value="" style="ellipse;whiteSpace=wrap;html=1;align=center;aspect=fixed;fillColor=none;strokeColor=none;resizable=0;perimeter=centerPerimeter;rotatable=0;allowArrows=0;points=[];outlineConnect=1;" vertex="1" parent="1">
                    <mxGeometry x="3040" y="400" width="10" height="10" as="geometry"/>
                </mxCell>
                <mxCell id="105" value="nama" style="ellipse;whiteSpace=wrap;html=1;align=center;" vertex="1" parent="1">
                    <mxGeometry x="2780" y="61.5" width="100" height="40" as="geometry"/>
                </mxCell>
                <mxCell id="106" value="&lt;u&gt;id_siswa&lt;/u&gt;" style="ellipse;whiteSpace=wrap;html=1;align=center;" vertex="1" parent="1">
                    <mxGeometry x="2873" y="48" width="100" height="40" as="geometry"/>
                </mxCell>
                <mxCell id="107" value="password" style="ellipse;whiteSpace=wrap;html=1;align=center;" vertex="1" parent="1">
                    <mxGeometry x="2960" y="68" width="100" height="40" as="geometry"/>
                </mxCell>
                <mxCell id="108" value="tgl_lahir" style="ellipse;whiteSpace=wrap;html=1;align=center;" vertex="1" parent="1">
                    <mxGeometry x="2710" y="88" width="100" height="40" as="geometry"/>
                </mxCell>
                <mxCell id="109" value="kelas" style="ellipse;whiteSpace=wrap;html=1;align=center;" vertex="1" parent="1">
                    <mxGeometry x="3030" y="101.5" width="100" height="40" as="geometry"/>
                </mxCell>
                <mxCell id="110" value="" style="endArrow=none;html=1;rounded=0;entryX=0.489;entryY=0.95;entryDx=0;entryDy=0;entryPerimeter=0;exitX=0.539;exitY=-0.043;exitDx=0;exitDy=0;exitPerimeter=0;" edge="1" parent="1" source="103" target="106">
                    <mxGeometry width="50" height="50" relative="1" as="geometry">
                        <mxPoint x="2810" y="150" as="sourcePoint"/>
                        <mxPoint x="2860" y="100" as="targetPoint"/>
                    </mxGeometry>
                </mxCell>
                <mxCell id="111" value="" style="endArrow=none;html=1;rounded=0;entryX=0.447;entryY=1.093;entryDx=0;entryDy=0;entryPerimeter=0;exitX=0.563;exitY=0.005;exitDx=0;exitDy=0;exitPerimeter=0;" edge="1" parent="1" source="103" target="107">
                    <mxGeometry width="50" height="50" relative="1" as="geometry">
                        <mxPoint x="2925" y="327" as="sourcePoint"/>
                        <mxPoint x="2932" y="96" as="targetPoint"/>
                    </mxGeometry>
                </mxCell>
                <mxCell id="112" value="" style="endArrow=none;html=1;rounded=0;entryX=0.519;entryY=1.113;entryDx=0;entryDy=0;entryPerimeter=0;exitX=0.599;exitY=0.005;exitDx=0;exitDy=0;exitPerimeter=0;" edge="1" parent="1" source="103" target="109">
                    <mxGeometry width="50" height="50" relative="1" as="geometry">
                        <mxPoint x="2928" y="330" as="sourcePoint"/>
                        <mxPoint x="3015" y="122" as="targetPoint"/>
                    </mxGeometry>
                </mxCell>
                <mxCell id="113" value="" style="endArrow=none;html=1;rounded=0;entryX=0.5;entryY=0.963;entryDx=0;entryDy=0;entryPerimeter=0;exitX=0.563;exitY=0.1;exitDx=0;exitDy=0;exitPerimeter=0;" edge="1" parent="1" source="103" target="105">
                    <mxGeometry width="50" height="50" relative="1" as="geometry">
                        <mxPoint x="2910" y="310" as="sourcePoint"/>
                        <mxPoint x="3092" y="156" as="targetPoint"/>
                    </mxGeometry>
                </mxCell>
                <mxCell id="114" value="" style="endArrow=none;html=1;rounded=0;entryX=0.547;entryY=0.986;entryDx=0;entryDy=0;entryPerimeter=0;exitX=0.504;exitY=0.029;exitDx=0;exitDy=0;exitPerimeter=0;" edge="1" parent="1" source="103" target="108">
                    <mxGeometry width="50" height="50" relative="1" as="geometry">
                        <mxPoint x="2928" y="336" as="sourcePoint"/>
                        <mxPoint x="2840" y="110" as="targetPoint"/>
                    </mxGeometry>
                </mxCell>
                <mxCell id="115" value="Memilih" style="shape=rhombus;perimeter=rhombusPerimeter;whiteSpace=wrap;html=1;align=center;" vertex="1" parent="1">
                    <mxGeometry x="3130" y="323" width="120" height="60" as="geometry"/>
                </mxCell>
                <mxCell id="116" value="" style="endArrow=none;html=1;rounded=0;" edge="1" parent="1">
                    <mxGeometry relative="1" as="geometry">
                        <mxPoint x="2970" y="353" as="sourcePoint"/>
                        <mxPoint x="3130" y="353" as="targetPoint"/>
                    </mxGeometry>
                </mxCell>
                <mxCell id="117" value="M" style="resizable=0;html=1;whiteSpace=wrap;align=left;verticalAlign=bottom;" connectable="0" vertex="1" parent="116">
                    <mxGeometry x="-1" relative="1" as="geometry"/>
                </mxCell>
                <mxCell id="118" value="M" style="resizable=0;html=1;whiteSpace=wrap;align=right;verticalAlign=bottom;" connectable="0" vertex="1" parent="116">
                    <mxGeometry x="1" relative="1" as="geometry"/>
                </mxCell>
                <mxCell id="119" value="id_siswa" style="ellipse;whiteSpace=wrap;html=1;align=center;" vertex="1" parent="1">
                    <mxGeometry x="3080" y="180" width="100" height="40" as="geometry"/>
                </mxCell>
                <mxCell id="120" value="" style="endArrow=none;html=1;rounded=0;entryX=0.465;entryY=1.021;entryDx=0;entryDy=0;entryPerimeter=0;" edge="1" parent="1" target="119">
                    <mxGeometry width="50" height="50" relative="1" as="geometry">
                        <mxPoint x="3190" y="320" as="sourcePoint"/>
                        <mxPoint x="2932" y="96" as="targetPoint"/>
                    </mxGeometry>
                </mxCell>
                <mxCell id="121" value="Bidang Masalah" style="rounded=0;whiteSpace=wrap;html=1;" vertex="1" parent="1">
                    <mxGeometry x="3380" y="320" width="120" height="60" as="geometry"/>
                </mxCell>
                <mxCell id="122" value="" style="endArrow=none;html=1;rounded=0;entryX=-0.022;entryY=0.583;entryDx=0;entryDy=0;entryPerimeter=0;" edge="1" parent="1" target="121">
                    <mxGeometry relative="1" as="geometry">
                        <mxPoint x="3250" y="354.28999999999996" as="sourcePoint"/>
                        <mxPoint x="3390" y="351.71" as="targetPoint"/>
                    </mxGeometry>
                </mxCell>
                <mxCell id="123" value="M" style="resizable=0;html=1;whiteSpace=wrap;align=left;verticalAlign=bottom;" connectable="0" vertex="1" parent="122">
                    <mxGeometry x="-1" relative="1" as="geometry"/>
                </mxCell>
                <mxCell id="124" value="M" style="resizable=0;html=1;whiteSpace=wrap;align=right;verticalAlign=bottom;" connectable="0" vertex="1" parent="122">
                    <mxGeometry x="1" relative="1" as="geometry"/>
                </mxCell>
                <mxCell id="125" value="&lt;u&gt;id_bidang_masalah&lt;/u&gt;" style="ellipse;whiteSpace=wrap;html=1;align=center;" vertex="1" parent="1">
                    <mxGeometry x="3390" y="58" width="100" height="40" as="geometry"/>
                </mxCell>
                <mxCell id="126" value="nama_bidang_masalah" style="ellipse;whiteSpace=wrap;html=1;align=center;" vertex="1" parent="1">
                    <mxGeometry x="3300" y="98" width="100" height="40" as="geometry"/>
                </mxCell>
                <mxCell id="127" value="" style="endArrow=none;html=1;rounded=0;" edge="1" parent="1" source="121">
                    <mxGeometry width="50" height="50" relative="1" as="geometry">
                        <mxPoint x="2932" y="330" as="sourcePoint"/>
                        <mxPoint x="3440" y="100" as="targetPoint"/>
                    </mxGeometry>
                </mxCell>
                <mxCell id="128" value="" style="endArrow=none;html=1;rounded=0;entryX=0.51;entryY=1.075;entryDx=0;entryDy=0;entryPerimeter=0;exitX=0.5;exitY=0.033;exitDx=0;exitDy=0;exitPerimeter=0;" edge="1" parent="1" source="121" target="126">
                    <mxGeometry width="50" height="50" relative="1" as="geometry">
                        <mxPoint x="3450" y="330" as="sourcePoint"/>
                        <mxPoint x="3450" y="110" as="targetPoint"/>
                    </mxGeometry>
                </mxCell>
                <mxCell id="129" value="id_bidang_masalah" style="ellipse;whiteSpace=wrap;html=1;align=center;" vertex="1" parent="1">
                    <mxGeometry x="3200" y="180" width="100" height="40" as="geometry"/>
                </mxCell>
                <mxCell id="130" value="" style="endArrow=none;html=1;rounded=0;entryX=0.48;entryY=1.025;entryDx=0;entryDy=0;entryPerimeter=0;" edge="1" parent="1" target="129">
                    <mxGeometry width="50" height="50" relative="1" as="geometry">
                        <mxPoint x="3190" y="320" as="sourcePoint"/>
                        <mxPoint x="3137" y="231" as="targetPoint"/>
                    </mxGeometry>
                </mxCell>
                <mxCell id="131" value="Soal Masalah" style="rounded=0;whiteSpace=wrap;html=1;" vertex="1" parent="1">
                    <mxGeometry x="3580" y="320" width="120" height="60" as="geometry"/>
                </mxCell>
                <mxCell id="132" value="id_bidang_masalah" style="ellipse;whiteSpace=wrap;html=1;align=center;" vertex="1" parent="1">
                    <mxGeometry x="3530" y="150" width="100" height="40" as="geometry"/>
                </mxCell>
                <mxCell id="133" value="&lt;u&gt;id_soal_masalah&lt;/u&gt;" style="ellipse;whiteSpace=wrap;html=1;align=center;" vertex="1" parent="1">
                    <mxGeometry x="3630" y="120" width="100" height="40" as="geometry"/>
                </mxCell>
                <mxCell id="134" value="" style="endArrow=none;html=1;rounded=0;entryX=0.481;entryY=1.085;entryDx=0;entryDy=0;entryPerimeter=0;" edge="1" parent="1" source="131" target="133">
                    <mxGeometry width="50" height="50" relative="1" as="geometry">
                        <mxPoint x="3450" y="330" as="sourcePoint"/>
                        <mxPoint x="3450" y="110" as="targetPoint"/>
                    </mxGeometry>
                </mxCell>
                <mxCell id="135" value="" style="endArrow=none;html=1;rounded=0;entryX=0.512;entryY=1.065;entryDx=0;entryDy=0;entryPerimeter=0;exitX=0.458;exitY=0.031;exitDx=0;exitDy=0;exitPerimeter=0;" edge="1" parent="1" source="131" target="132">
                    <mxGeometry width="50" height="50" relative="1" as="geometry">
                        <mxPoint x="3656" y="330" as="sourcePoint"/>
                        <mxPoint x="3688" y="173" as="targetPoint"/>
                    </mxGeometry>
                </mxCell>
                <mxCell id="136" value="Jawaban Masalah" style="rounded=0;whiteSpace=wrap;html=1;" vertex="1" parent="1">
                    <mxGeometry x="3580" y="510" width="120" height="60" as="geometry"/>
                </mxCell>
                <mxCell id="137" value="&lt;u&gt;id_jawaban_,masalah&lt;/u&gt;" style="ellipse;whiteSpace=wrap;html=1;align=center;" vertex="1" parent="1">
                    <mxGeometry x="3740" y="414" width="100" height="40" as="geometry"/>
                </mxCell>
                <mxCell id="138" value="id_siswa" style="ellipse;whiteSpace=wrap;html=1;align=center;" vertex="1" parent="1">
                    <mxGeometry x="3830" y="470" width="100" height="40" as="geometry"/>
                </mxCell>
                <mxCell id="139" value="id_bidang_masalah" style="ellipse;whiteSpace=wrap;html=1;align=center;" vertex="1" parent="1">
                    <mxGeometry x="3830" y="560" width="100" height="40" as="geometry"/>
                </mxCell>
                <mxCell id="140" value="&lt;u&gt;id_soal_masalah&lt;/u&gt;" style="ellipse;whiteSpace=wrap;html=1;align=center;" vertex="1" parent="1">
                    <mxGeometry x="3730" y="660" width="100" height="40" as="geometry"/>
                </mxCell>
                <mxCell id="141" value="" style="endArrow=none;html=1;rounded=0;exitX=1.015;exitY=0.529;exitDx=0;exitDy=0;exitPerimeter=0;" edge="1" parent="1" source="136" target="138">
                    <mxGeometry width="50" height="50" relative="1" as="geometry">
                        <mxPoint x="3650" y="520" as="sourcePoint"/>
                        <mxPoint x="3650" y="390" as="targetPoint"/>
                    </mxGeometry>
                </mxCell>
                <mxCell id="142" value="" style="endArrow=none;html=1;rounded=0;entryX=0.461;entryY=1.086;entryDx=0;entryDy=0;entryPerimeter=0;" edge="1" parent="1" target="137">
                    <mxGeometry width="50" height="50" relative="1" as="geometry">
                        <mxPoint x="3700" y="540" as="sourcePoint"/>
                        <mxPoint x="3850" y="512" as="targetPoint"/>
                    </mxGeometry>
                </mxCell>
                <mxCell id="143" value="" style="endArrow=none;html=1;rounded=0;entryX=0;entryY=0.5;entryDx=0;entryDy=0;entryPerimeter=0;" edge="1" parent="1" target="139">
                    <mxGeometry width="50" height="50" relative="1" as="geometry">
                        <mxPoint x="3710" y="550" as="sourcePoint"/>
                        <mxPoint x="3796" y="467" as="targetPoint"/>
                    </mxGeometry>
                </mxCell>
                <mxCell id="144" value="" style="endArrow=none;html=1;rounded=0;entryX=0.404;entryY=0.007;entryDx=0;entryDy=0;entryPerimeter=0;exitX=1.015;exitY=0.529;exitDx=0;exitDy=0;exitPerimeter=0;" edge="1" parent="1" source="136" target="140">
                    <mxGeometry width="50" height="50" relative="1" as="geometry">
                        <mxPoint x="3720" y="560" as="sourcePoint"/>
                        <mxPoint x="3840" y="590" as="targetPoint"/>
                    </mxGeometry>
                </mxCell>
                <mxCell id="145" value="BK" style="rounded=0;whiteSpace=wrap;html=1;" vertex="1" parent="1">
                    <mxGeometry x="3160" y="503" width="120" height="60" as="geometry"/>
                </mxCell>
                <mxCell id="146" value="Melihat" style="shape=rhombus;perimeter=rhombusPerimeter;whiteSpace=wrap;html=1;align=center;" vertex="1" parent="1">
                    <mxGeometry x="3387" y="510" width="120" height="60" as="geometry"/>
                </mxCell>
                <mxCell id="147" value="" style="endArrow=none;html=1;rounded=0;entryX=0.025;entryY=0.5;entryDx=0;entryDy=0;entryPerimeter=0;" edge="1" parent="1" target="146">
                    <mxGeometry relative="1" as="geometry">
                        <mxPoint x="3280" y="540" as="sourcePoint"/>
                        <mxPoint x="3380" y="540" as="targetPoint"/>
                    </mxGeometry>
                </mxCell>
                <mxCell id="148" value="1" style="resizable=0;html=1;whiteSpace=wrap;align=left;verticalAlign=bottom;" connectable="0" vertex="1" parent="147">
                    <mxGeometry x="-1" relative="1" as="geometry"/>
                </mxCell>
                <mxCell id="149" value="M" style="resizable=0;html=1;whiteSpace=wrap;align=right;verticalAlign=bottom;" connectable="0" vertex="1" parent="147">
                    <mxGeometry x="1" relative="1" as="geometry"/>
                </mxCell>
                <mxCell id="150" value="" style="endArrow=none;html=1;rounded=0;" edge="1" parent="1">
                    <mxGeometry relative="1" as="geometry">
                        <mxPoint x="3500" y="352.99999999999994" as="sourcePoint"/>
                        <mxPoint x="3580" y="354" as="targetPoint"/>
                    </mxGeometry>
                </mxCell>
                <mxCell id="151" value="M" style="resizable=0;html=1;whiteSpace=wrap;align=left;verticalAlign=bottom;" connectable="0" vertex="1" parent="150">
                    <mxGeometry x="-1" relative="1" as="geometry"/>
                </mxCell>
                <mxCell id="152" value="M" style="resizable=0;html=1;whiteSpace=wrap;align=right;verticalAlign=bottom;" connectable="0" vertex="1" parent="150">
                    <mxGeometry x="1" relative="1" as="geometry"/>
                </mxCell>
                <mxCell id="153" value="" style="endArrow=none;html=1;rounded=0;entryX=0.492;entryY=1.042;entryDx=0;entryDy=0;entryPerimeter=0;exitX=0.492;exitY=0.056;exitDx=0;exitDy=0;exitPerimeter=0;" edge="1" parent="1" source="136" target="131">
                    <mxGeometry relative="1" as="geometry">
                        <mxPoint x="3530" y="429.99999999999994" as="sourcePoint"/>
                        <mxPoint x="3610" y="431" as="targetPoint"/>
                    </mxGeometry>
                </mxCell>
                <mxCell id="154" value="M" style="resizable=0;html=1;whiteSpace=wrap;align=left;verticalAlign=bottom;" connectable="0" vertex="1" parent="153">
                    <mxGeometry x="-1" relative="1" as="geometry"/>
                </mxCell>
                <mxCell id="155" value="M" style="resizable=0;html=1;whiteSpace=wrap;align=right;verticalAlign=bottom;" connectable="0" vertex="1" parent="153">
                    <mxGeometry x="1" relative="1" as="geometry"/>
                </mxCell>
                <mxCell id="156" value="" style="endArrow=none;html=1;rounded=0;entryX=-0.015;entryY=0.514;entryDx=0;entryDy=0;entryPerimeter=0;" edge="1" parent="1" target="136">
                    <mxGeometry relative="1" as="geometry">
                        <mxPoint x="3510" y="540" as="sourcePoint"/>
                        <mxPoint x="3570" y="540" as="targetPoint"/>
                    </mxGeometry>
                </mxCell>
                <mxCell id="157" value="1" style="resizable=0;html=1;whiteSpace=wrap;align=left;verticalAlign=bottom;" connectable="0" vertex="1" parent="156">
                    <mxGeometry x="-1" relative="1" as="geometry"/>
                </mxCell>
                <mxCell id="158" value="M" style="resizable=0;html=1;whiteSpace=wrap;align=right;verticalAlign=bottom;" connectable="0" vertex="1" parent="156">
                    <mxGeometry x="1" relative="1" as="geometry"/>
                </mxCell>
            </root>
        </mxGraphModel>
    </diagram>
</mxfile>